{
  "asset": {
    "generator": "Khronos glTF Blender I/O v1.0.5",
    "version": "2.0"
  },
  "scene": 0,
  "scenes": [
    {
      "name": "Scene",
      "nodes": [
        0,
        1,
        2,
        3,
        4
      ]
    }
  ],
  "nodes": [
    {
      "mesh": 0,
      "name": "Pad",
      "translation": [
        0,
        0.37235739827156067,
        0
      ]
    },
    {
      "name": "Light",
      "rotation": [
        0.16907575726509094,
        0.7558803558349609,
        -0.27217137813568115,
        0.570947527885437
      ],
      "translation": [
        4.080567359924316,
        5.909925937652588,
        -1.0071203708648682
      ]
    },
    {
      "name": "Camera",
      "rotation": [
        0.483536034822464,
        0.33687159419059753,
        -0.20870360732078552,
        0.7804827094078064
      ],
      "translation": [
        7.358891487121582,
        4.958309173583984,
        6.925790786743164
      ]
    },
    {
      "mesh": 1,
      "name": "Keys",
      "rotation": [
        0.08124031871557236,
        0,
        0,
        0.9966945648193359
      ],
      "scale": [
        0.11642507463693619,
        0.0416002981364727,
        0.11435184627771378
      ],
      "translation": [
        -0.3032071590423584,
        0.41327428817749023,
        -0.405829519033432
      ]
    },
    {
      "mesh": 2,
      "name": "Side",
      "scale": [
        0.016338972374796867,
        0.06568827480077744,
        0.5732713937759399
      ],
      "translation": [
        0.7434510588645935,
        0.16251534223556519,
        -0.06682577729225159
      ]
    }
  ],
  "materials": [
    {
      "doubleSided": true,
      "name": "Pad",
      "pbrMetallicRoughness": {
        "baseColorFactor": [
          0.7334819436073303,
          0.6622511744499207,
          0.8824219107627869,
          1
        ],
        "metallicFactor": 0.05909085273742676,
        "roughnessFactor": 0.41818177700042725
      }
    },
    {
      "doubleSided": true,
      "name": "Keys",
      "pbrMetallicRoughness": {
        "baseColorFactor": [
          1,
          0.4758177101612091,
          0.2390531301498413,
          1
        ],
        "metallicFactor": 0,
        "roughnessFactor": 1
      }
    },
    {
      "doubleSided": true,
      "name": "Side",
      "pbrMetallicRoughness": {
        "baseColorFactor": [
          0.06502153724431992,
          0.08033162355422974,
          0.2682885229587555,
          1
        ],
        "metallicFactor": 0.9045454263687134,
        "roughnessFactor": 1
      }
    }
  ],
  "meshes": [
    {
      "name": "Cube",
      "primitives": [
        {
          "attributes": {
            "POSITION": 0,
            "NORMAL": 1,
            "TEXCOORD_0": 2
          },
          "indices": 3,
          "material": 0
        }
      ]
    },
    {
      "name": "Cube.003",
      "primitives": [
        {
          "attributes": {
            "POSITION": 4,
            "NORMAL": 5,
            "TEXCOORD_0": 6
          },
          "indices": 7,
          "material": 1
        }
      ]
    },
    {
      "name": "Cube.014",
      "primitives": [
        {
          "attributes": {
            "POSITION": 8,
            "NORMAL": 9,
            "TEXCOORD_0": 10
          },
          "indices": 11,
          "material": 2
        }
      ]
    }
  ],
  "accessors": [
    {
      "bufferView": 0,
      "componentType": 5126,
      "count": 24,
      "max": [
        0.7382628917694092,
        0.10542234778404236,
        0.6118856072425842
      ],
      "min": [
        -0.6944906711578369,
        -0.3794294595718384,
        -0.7420658469200134
      ],
      "type": "VEC3"
    },
    {
      "bufferView": 1,
      "componentType": 5126,
      "count": 24,
      "type": "VEC3"
    },
    {
      "bufferView": 2,
      "componentType": 5126,
      "count": 24,
      "type": "VEC2"
    },
    {
      "bufferView": 3,
      "componentType": 5123,
      "count": 36,
      "type": "SCALAR"
    },
    {
      "bufferView": 4,
      "componentType": 5126,
      "count": 216,
      "max": [
        6.632800102233887,
        1,
        6.940481662750244
      ],
      "min": [
        -1,
        -1.040565013885498,
        -1
      ],
      "type": "VEC3"
    },
    {
      "bufferView": 5,
      "componentType": 5126,
      "count": 216,
      "type": "VEC3"
    },
    {
      "bufferView": 6,
      "componentType": 5126,
      "count": 216,
      "type": "VEC2"
    },
    {
      "bufferView": 7,
      "componentType": 5123,
      "count": 324,
      "type": "SCALAR"
    },
    {
      "bufferView": 8,
      "componentType": 5126,
      "count": 48,
      "max": [
        1,
        1,
        1.0000001192092896
      ],
      "min": [
        -89.53868103027344,
        -1,
        -1.0000001192092896
      ],
      "type": "VEC3"
    },
    {
      "bufferView": 9,
      "componentType": 5126,
      "count": 48,
      "type": "VEC3"
    },
    {
      "bufferView": 10,
      "componentType": 5126,
      "count": 48,
      "type": "VEC2"
    },
    {
      "bufferView": 11,
      "componentType": 5123,
      "count": 72,
      "type": "SCALAR"
    }
  ],
  "bufferViews": [
    {
      "buffer": 0,
      "byteLength": 288,
      "byteOffset": 0
    },
    {
      "buffer": 0,
      "byteLength": 288,
      "byteOffset": 288
    },
    {
      "buffer": 0,
      "byteLength": 192,
      "byteOffset": 576
    },
    {
      "buffer": 0,
      "byteLength": 72,
      "byteOffset": 768
    },
    {
      "buffer": 0,
      "byteLength": 2592,
      "byteOffset": 840
    },
    {
      "buffer": 0,
      "byteLength": 2592,
      "byteOffset": 3432
    },
    {
      "buffer": 0,
      "byteLength": 1728,
      "byteOffset": 6024
    },
    {
      "buffer": 0,
      "byteLength": 648,
      "byteOffset": 7752
    },
    {
      "buffer": 0,
      "byteLength": 576,
      "byteOffset": 8400
    },
    {
      "buffer": 0,
      "byteLength": 576,
      "byteOffset": 8976
    },
    {
      "buffer": 0,
      "byteLength": 384,
      "byteOffset": 9552
    },
    {
      "buffer": 0,
      "byteLength": 144,
      "byteOffset": 9936
    }
  ],
  "buffers": [
    {
      "uri": "pad_music_data.bin",
      "byteLength": 10080
    }
  ]
}